<?xml version="1.0" standalone="no"?>
<!DOCTYPE svg PUBLIC "-//W3C//DTD SVG 20010904//EN"
 "http://www.w3.org/TR/2001/REC-SVG-20010904/DTD/svg10.dtd">
<svg version="1.0" xmlns="http://www.w3.org/2000/svg"
 width="40.000000pt" height="40.000000pt" viewBox="0 0 40.000000 40.000000"
 preserveAspectRatio="xMidYMid meet">

<g transform="translate(0.000000,40.000000) scale(0.100000,-0.100000)"
fill="#000000" stroke="none">
<path d="M144 361 c-35 -9 -104 -58 -104 -74 0 -6 -7 -19 -17 -29 -12 -14 -14
-23 -6 -41 15 -33 34 -89 41 -117 11 -52 62 -60 62 -10 l0 28 80 0 80 0 0 -28
c0 -16 4 -31 10 -35 16 -10 48 17 53 44 5 27 23 81 40 118 8 18 6 27 -6 41
-10 10 -17 22 -17 26 0 14 -64 61 -99 73 -41 13 -73 14 -117 4z m138 -42 c23
-12 48 -27 55 -34 16 -16 17 -51 3 -60 -8 -5 -8 -11 -1 -19 15 -18 2 -27 -21
-15 -24 13 -38 4 -38 -26 0 -20 -6 -23 -45 -27 -25 -2 -45 -1 -45 2 0 3 -16 4
-35 2 -33 -4 -35 -3 -35 27 0 33 -9 37 -40 21 -20 -11 -39 4 -20 15 8 5 8 11
0 20 -22 26 -7 58 40 86 57 35 124 38 182 8z"/>
</g>
</svg>
